<svg width="30" height="30" viewBox="0 0 30 30" fill="none" xmlns="http://www.w3.org/2000/svg">
<path fill-rule="evenodd" clip-rule="evenodd" d="M10 2.5C10 1.80964 9.44035 1.25 8.75 1.25C8.05964 1.25 7.5 1.80964 7.5 2.5V3.75H6.25C5.25544 3.75 4.30161 4.14509 3.59835 4.84835C2.89509 5.55161 2.5 6.50544 2.5 7.5V23.75C2.5 24.7446 2.89509 25.6984 3.59835 26.4017C4.30161 27.1049 5.25544 27.5 6.25 27.5H23.75C24.7446 27.5 25.6984 27.1049 26.4016 26.4017C27.1049 25.6984 27.5 24.7446 27.5 23.75V7.5C27.5 6.50544 27.1049 5.55161 26.4016 4.84835C25.6984 4.14509 24.7446 3.75 23.75 3.75H23.125C22.4346 3.75 21.875 4.30964 21.875 5C21.875 5.69036 22.4346 6.25 23.125 6.25H23.75C24.0815 6.25 24.3995 6.3817 24.6339 6.61612C24.8683 6.85054 25 7.16848 25 7.5V11.25H5V7.5C5 7.16848 5.1317 6.85054 5.36612 6.61612C5.60054 6.3817 5.91848 6.25 6.25 6.25H7.5V7.5C7.5 8.19036 8.05964 8.75 8.75 8.75C9.44035 8.75 10 8.19036 10 7.5V2.5ZM5.36612 24.6339C5.1317 24.3995 5 24.0815 5 23.75V13.75H25V23.75C25 24.0815 24.8683 24.3995 24.6339 24.6339C24.3995 24.8683 24.0815 25 23.75 25H6.25C5.91848 25 5.60054 24.8683 5.36612 24.6339Z" fill="#854836"/>
<path d="M20 2.5C20 1.80964 19.4404 1.25 18.75 1.25C18.0596 1.25 17.5 1.80964 17.5 2.5V3.75H13.125C12.4346 3.75 11.875 4.30964 11.875 5C11.875 5.69036 12.4346 6.25 13.125 6.25H17.5V7.5C17.5 8.19036 18.0596 8.75 18.75 8.75C19.4404 8.75 20 8.19036 20 7.5V2.5Z" fill="#854836"/>
</svg>
