<svg width="27" height="27" viewBox="0 0 27 27" fill="none" xmlns="http://www.w3.org/2000/svg">
<path d="M5.39502 17.7266V16.9063H3.7561V17.7266C3.7561 19.2495 4.36045 20.71 5.4362 21.7869C6.51195 22.8638 7.97097 23.4688 9.49231 23.4688H11.9507V21.8281H9.49231C8.40564 21.8281 7.36348 21.396 6.59509 20.6268C5.8267 19.8576 5.39502 18.8144 5.39502 17.7266ZM20.1453 9.52344V10.3438H21.7842V9.52344C21.7842 8.00052 21.1798 6.53997 20.1041 5.4631C19.0283 4.38623 17.5693 3.78125 16.048 3.78125H13.5896V5.42188H16.048C16.586 5.42188 17.1188 5.52797 17.6159 5.73409C18.113 5.94021 18.5647 6.24233 18.9452 6.6232C19.3257 7.00406 19.6275 7.45622 19.8334 7.95384C20.0393 8.45146 20.1453 8.98481 20.1453 9.52344ZM9.49231 9.52344H4.57556C3.92356 9.52344 3.29826 9.78272 2.83723 10.2442C2.37619 10.7057 2.11719 11.3317 2.11719 11.9844V13.625H3.7561V11.9844C3.7561 11.7668 3.84244 11.5582 3.99612 11.4043C4.1498 11.2505 4.35823 11.1641 4.57556 11.1641H9.49231C9.70964 11.1641 9.91808 11.2505 10.0718 11.4043C10.2254 11.5582 10.3118 11.7668 10.3118 11.9844V13.625H11.9507V11.9844C11.9507 11.3317 11.6917 10.7057 11.2306 10.2442C10.7696 9.78272 10.1443 9.52344 9.49231 9.52344ZM7.03394 8.70313C7.68223 8.70313 8.31596 8.51068 8.855 8.15014C9.39404 7.78959 9.81417 7.27713 10.0623 6.67756C10.3103 6.07799 10.3753 5.41824 10.2488 4.78174C10.1223 4.14524 9.81013 3.56057 9.35171 3.10168C8.8933 2.64279 8.30925 2.33028 7.67341 2.20367C7.03757 2.07707 6.37851 2.14205 5.77956 2.3904C5.18062 2.63875 4.66869 3.05931 4.30852 3.59891C3.94834 4.13851 3.7561 4.77291 3.7561 5.42188C3.7561 6.29212 4.10145 7.12672 4.71616 7.74207C5.33087 8.35743 6.1646 8.70313 7.03394 8.70313ZM7.03394 3.78125C7.35808 3.78125 7.67495 3.87747 7.94447 4.05775C8.21399 4.23802 8.42405 4.49425 8.5481 4.79404C8.67214 5.09382 8.7046 5.4237 8.64136 5.74195C8.57812 6.0602 8.42203 6.35253 8.19282 6.58197C7.96362 6.81142 7.67159 6.96767 7.35367 7.03098C7.03575 7.09428 6.70622 7.06179 6.40675 6.93762C6.10728 6.81344 5.85131 6.60316 5.67123 6.33336C5.49114 6.06356 5.39502 5.74636 5.39502 5.42188C5.39502 4.98676 5.56769 4.56946 5.87505 4.26178C6.1824 3.9541 6.59927 3.78125 7.03394 3.78125ZM22.6036 21.0078H17.6869C17.0349 21.0078 16.4096 21.2671 15.9486 21.7286C15.4875 22.1901 15.2285 22.8161 15.2285 23.4688V25.1094H16.8674V23.4688C16.8674 23.2512 16.9538 23.0425 17.1074 22.8887C17.2611 22.7349 17.4696 22.6484 17.6869 22.6484H22.6036C22.821 22.6484 23.0294 22.7349 23.1831 22.8887C23.3368 23.0425 23.4231 23.2512 23.4231 23.4688V25.1094H25.062V23.4688C25.062 22.8161 24.803 22.1901 24.342 21.7286C23.8809 21.2671 23.2556 21.0078 22.6036 21.0078ZM16.8674 16.9063C16.8674 17.5552 17.0597 18.1896 17.4198 18.7292C17.78 19.2688 18.2919 19.6894 18.8909 19.9377C19.4898 20.1861 20.1489 20.2511 20.7847 20.1245C21.4206 19.9978 22.0046 19.6853 22.463 19.2264C22.9215 18.7676 23.2336 18.1829 23.3601 17.5464C23.4866 16.9099 23.4217 16.2501 23.1736 15.6506C22.9255 15.051 22.5054 14.5385 21.9663 14.178C21.4273 13.8174 20.7936 13.625 20.1453 13.625C19.2759 13.625 18.4422 13.9707 17.8275 14.5861C17.2128 15.2014 16.8674 16.036 16.8674 16.9063ZM21.7842 16.9063C21.7842 17.2307 21.6881 17.5479 21.508 17.8177C21.3279 18.0875 21.0719 18.2978 20.7724 18.422C20.473 18.5462 20.1434 18.5787 19.8255 18.5154C19.5076 18.452 19.2156 18.2958 18.9864 18.0663C18.7572 17.8369 18.6011 17.5446 18.5378 17.2263C18.4746 16.9081 18.5071 16.5782 18.6311 16.2784C18.7551 15.9786 18.9652 15.7224 19.2347 15.5421C19.5042 15.3618 19.8211 15.2656 20.1453 15.2656C20.5799 15.2656 20.9968 15.4385 21.3042 15.7462C21.6115 16.0538 21.7842 16.4711 21.7842 16.9063Z" fill="#854836"/>
</svg>
