<svg width="30" height="30" viewBox="0 0 30 30" fill="none" xmlns="http://www.w3.org/2000/svg">
<rect x="30" y="30" width="28.2746" height="30" rx="3" transform="rotate(-180 30 30)" fill="#F7F7F7"/>
<path fill-rule="evenodd" clip-rule="evenodd" d="M10.5332 10.3125H17.7121C18.4936 10.3125 19.1679 10.3125 19.7081 10.39C20.2871 10.4725 20.8415 10.6588 21.291 11.1363C21.7406 11.6138 21.9159 12.2037 21.9936 12.8175C22.0666 13.3912 22.0666 14.1075 22.0666 14.9388V20.0612C22.0666 20.8925 22.0666 21.6088 21.9936 22.1825C21.9159 22.7975 21.7406 23.3862 21.291 23.8637C20.8415 24.3412 20.286 24.5275 19.7081 24.61C19.1679 24.6875 18.4936 24.6875 17.7121 24.6875H10.5332C9.75172 24.6875 9.07737 24.6875 8.53718 24.61C7.95933 24.5275 7.40384 24.3412 6.95427 23.8637C6.50471 23.3862 6.32935 22.7963 6.25168 22.1825C6.17871 21.6088 6.17871 20.8925 6.17871 20.0612V14.9388C6.17871 14.1075 6.17871 13.3912 6.25168 12.8175C6.32935 12.2037 6.50471 11.6138 6.95427 11.1363C7.40384 10.6588 7.95933 10.4725 8.53718 10.39C9.07737 10.3125 9.75172 10.3125 10.5343 10.3125H10.5332ZM8.77373 12.2475C8.39124 12.3025 8.2712 12.3913 8.20412 12.4625C8.13704 12.5338 8.05348 12.6613 8.0017 13.0675C7.94756 13.5013 7.94521 14.09 7.94521 15V20C7.94521 20.91 7.94756 21.5 8.0017 21.9325C8.05348 22.3387 8.13704 22.4663 8.20412 22.5375C8.2712 22.6088 8.39124 22.6975 8.77373 22.7525C9.18211 22.81 9.73642 22.8125 10.5932 22.8125H17.6545C18.5112 22.8125 19.0667 22.81 19.4739 22.7525C19.8564 22.6975 19.9764 22.6088 20.0435 22.5375C20.1106 22.4663 20.1942 22.3387 20.246 21.9325C20.3001 21.4987 20.3024 20.91 20.3024 20V15C20.3024 14.09 20.3001 13.5 20.246 13.0675C20.1942 12.6613 20.1106 12.5338 20.0435 12.4625C19.9764 12.3913 19.8564 12.3025 19.4739 12.2475C19.0655 12.19 18.5112 12.1875 17.6545 12.1875H10.592C9.73524 12.1875 9.18093 12.19 8.77373 12.2475Z" fill="#854836"/>
<path d="M8.23813 6.5625C8.00403 6.5625 7.77952 6.66127 7.61399 6.83709C7.44846 7.0129 7.35547 7.25136 7.35547 7.5C7.35547 7.74864 7.44846 7.9871 7.61399 8.16291C7.77952 8.33873 8.00403 8.4375 8.23813 8.4375H14.1225C14.3566 8.4375 14.5811 8.33873 14.7467 8.16291C14.9122 7.9871 15.0052 7.74864 15.0052 7.5C15.0052 7.25136 14.9122 7.0129 14.7467 6.83709C14.5811 6.66127 14.3566 6.5625 14.1225 6.5625H8.23813Z" fill="#854836"/>
<path fill-rule="evenodd" clip-rule="evenodd" d="M12.8802 1.5625H15.3658C17.5289 1.5625 19.2424 1.5625 20.5829 1.75375C21.9622 1.95125 23.0791 2.36625 23.9606 3.30125C24.8409 4.2375 25.2316 5.42375 25.4175 6.88875C25.5976 8.31375 25.5976 10.1325 25.5976 12.43V17.57C25.5976 19.8675 25.5976 21.6875 25.4175 23.1112C25.2316 24.5763 24.8409 25.7625 23.9606 26.6987C23.0791 27.6337 21.9622 28.0487 20.5829 28.2463C19.2413 28.4375 17.5289 28.4375 15.3658 28.4375H12.8802C10.7171 28.4375 9.00359 28.4375 7.66312 28.2463C6.28382 28.0487 5.16696 27.6337 4.28548 26.6987C3.40517 25.7625 3.01445 24.5763 2.8285 23.1112C2.64844 21.6863 2.64844 19.8675 2.64844 17.57V12.43C2.64844 10.1325 2.64844 8.3125 2.8285 6.88875C3.01445 5.42375 3.40517 4.2375 4.28548 3.30125C5.16696 2.36625 6.28382 1.95125 7.66312 1.75375C9.00476 1.5625 10.7171 1.5625 12.8802 1.5625ZM7.89732 3.6125C6.71338 3.78125 6.03079 4.09875 5.53179 4.6275C5.03515 5.15625 4.73622 5.88125 4.57734 7.13875C4.41493 8.42375 4.41258 10.1163 4.41258 12.5V17.5C4.41258 19.8837 4.41493 21.5775 4.57734 22.8625C4.73622 24.1188 5.03515 24.8438 5.53297 25.3725C6.03079 25.9013 6.71338 26.2188 7.89732 26.3875C9.10715 26.56 10.7006 26.5625 12.945 26.5625H15.2987C17.543 26.5625 19.1377 26.56 20.3475 26.3875C21.5303 26.2188 22.2129 25.9013 22.7107 25.3725C23.2085 24.8438 23.5075 24.1187 23.6663 22.8612C23.8287 21.5775 23.8311 19.8837 23.8311 17.5V12.5C23.8311 10.1163 23.8287 8.42375 23.6663 7.1375C23.5075 5.88125 23.2085 5.15625 22.7107 4.6275C22.2129 4.09875 21.5303 3.78125 20.3464 3.6125C19.1377 3.44 17.543 3.4375 15.2987 3.4375H12.945C10.7006 3.4375 9.10833 3.44 7.89732 3.6125Z" fill="#854836"/>
</svg>
