<svg width="30" height="30" viewBox="0 0 30 30" fill="none" xmlns="http://www.w3.org/2000/svg">
<path fill-rule="evenodd" clip-rule="evenodd" d="M15 3.34717C13.8579 3.34717 12.7377 3.6601 11.7609 4.25199L5.51094 8.03949C4.59186 8.59643 3.8319 9.38096 3.30448 10.3173C2.77706 11.2536 2.49998 12.3101 2.5 13.3848V21.2498C2.5 22.9074 3.15848 24.4971 4.33058 25.6692C5.50268 26.8413 7.0924 27.4998 8.75 27.4998H21.25C22.9076 27.4998 24.4973 26.8413 25.6694 25.6692C26.8415 24.4971 27.5 22.9074 27.5 21.2498V13.3835C27.4998 12.3091 27.2225 11.2526 26.6951 10.3166C26.1677 9.38057 25.4079 8.5963 24.4891 8.0395L18.2391 4.252C17.2623 3.66011 16.1421 3.34717 15 3.34717ZM13.0566 6.39005C13.6426 6.03493 14.3148 5.84717 15 5.84717C15.6852 5.84717 16.3574 6.03493 16.9434 6.39005L23.1934 10.1775C23.7447 10.5116 24.2006 10.9822 24.5171 11.5438C24.8335 12.1054 24.9998 12.739 25 13.3835V21.2498C25 22.2443 24.6049 23.1982 23.9016 23.9014C23.1984 24.6047 22.2446 24.9998 21.25 24.9998H20V21.2498C20 19.9237 19.4732 18.6519 18.5355 17.7142C17.5978 16.7766 16.3261 16.2498 15 16.2498C13.6739 16.2498 12.4021 16.7766 11.4645 17.7142C10.5268 18.6519 10 19.9237 10 21.2498V24.9998H8.75C7.75544 24.9998 6.80161 24.6047 6.09835 23.9014C5.39509 23.1982 5 22.2443 5 21.2498V13.3848C4.99999 12.74 5.16623 12.106 5.48269 11.5442C5.79914 10.9824 6.25511 10.5117 6.80656 10.1776L13.0566 6.39005ZM16.7678 19.482C17.2366 19.9508 17.5 20.5867 17.5 21.2498V24.9998H12.5V21.2498C12.5 20.5867 12.7634 19.9508 13.2322 19.482C13.7011 19.0132 14.337 18.7498 15 18.7498C15.663 18.7498 16.2989 19.0132 16.7678 19.482Z" fill="#854836"/>
</svg>
