<svg width="82" height="21" viewBox="0 0 82 21" fill="none" xmlns="http://www.w3.org/2000/svg">
<g opacity="0.2">
<rect opacity="0.01" x="17.5" width="20" height="20" fill="#854836"/>
<path d="M27.4993 10.0002C27.9596 10.0002 28.3327 9.62707 28.3327 9.16683C28.3327 8.70659 27.9596 8.3335 27.4993 8.3335C27.0391 8.3335 26.666 8.70659 26.666 9.16683C26.666 9.62707 27.0391 10.0002 27.4993 10.0002Z" fill="#854836"/>
<path d="M30.8333 10.0002C31.2936 10.0002 31.6667 9.62707 31.6667 9.16683C31.6667 8.70659 31.2936 8.3335 30.8333 8.3335C30.3731 8.3335 30 8.70659 30 9.16683C30 9.62707 30.3731 10.0002 30.8333 10.0002Z" fill="#854836"/>
<path d="M24.1663 10.0002C24.6266 10.0002 24.9997 9.62707 24.9997 9.16683C24.9997 8.70659 24.6266 8.3335 24.1663 8.3335C23.7061 8.3335 23.333 8.70659 23.333 9.16683C23.333 9.62707 23.7061 10.0002 24.1663 10.0002Z" fill="#854836"/>
<path fill-rule="evenodd" clip-rule="evenodd" d="M21.666 2.5H33.3327C34.7134 2.5 35.8327 3.61929 35.8327 5V13.3333C35.8327 14.714 34.7134 15.8333 33.3327 15.8333H24.6243C24.4635 15.8271 24.3043 15.8677 24.166 15.95L20.4243 18.2167C20.2957 18.293 20.1489 18.3333 19.9993 18.3333C19.8562 18.3329 19.7156 18.2956 19.591 18.225C19.3289 18.0777 19.1665 17.8006 19.166 17.5V5C19.166 3.61929 20.2853 2.5 21.666 2.5ZM33.332 14.1665C33.7923 14.1665 34.1654 13.7934 34.1654 13.3332V4.99984C34.1654 4.5396 33.7923 4.1665 33.332 4.1665H21.6654C21.2051 4.1665 20.832 4.5396 20.832 4.99984V16.0248L23.332 14.5248C23.7219 14.29 24.1686 14.1661 24.6237 14.1665H33.332Z" fill="#854836"/>
</g>
<path opacity="0.2" d="M52.178 7.412C51.9727 6.19867 51.268 5.592 50.064 5.592C49.1493 5.592 48.4633 5.94667 48.006 6.656C47.5487 7.36533 47.3387 8.52733 47.376 10.142C47.5627 9.582 47.9173 9.14333 48.44 8.826C48.972 8.49933 49.5787 8.336 50.26 8.336C51.24 8.336 52.0147 8.63933 52.584 9.246C53.1627 9.84333 53.452 10.6693 53.452 11.724C53.452 12.34 53.3307 12.9 53.088 13.404C52.8547 13.8987 52.4907 14.2953 51.996 14.594C51.5107 14.8927 50.904 15.042 50.176 15.042C48.7853 15.042 47.824 14.5987 47.292 13.712C46.7693 12.8253 46.508 11.57 46.508 9.946C46.508 6.49267 47.6933 4.766 50.064 4.766C50.96 4.766 51.6647 5.01333 52.178 5.508C52.6913 5.99333 52.9947 6.628 53.088 7.412H52.178ZM50.078 9.176C49.6393 9.176 49.224 9.26467 48.832 9.442C48.44 9.61933 48.118 9.89 47.866 10.254C47.6233 10.6087 47.502 11.0473 47.502 11.57C47.502 12.326 47.726 12.956 48.174 13.46C48.622 13.964 49.2753 14.216 50.134 14.216C50.8527 14.216 51.4267 13.9967 51.856 13.558C52.2853 13.1193 52.5 12.522 52.5 11.766C52.5 10.954 52.29 10.3193 51.87 9.862C51.45 9.40467 50.8527 9.176 50.078 9.176ZM60.9827 7.412C60.7774 6.19867 60.0727 5.592 58.8687 5.592C57.954 5.592 57.268 5.94667 56.8107 6.656C56.3534 7.36533 56.1434 8.52733 56.1807 10.142C56.3674 9.582 56.722 9.14333 57.2447 8.826C57.7767 8.49933 58.3834 8.336 59.0647 8.336C60.0447 8.336 60.8194 8.63933 61.3887 9.246C61.9674 9.84333 62.2567 10.6693 62.2567 11.724C62.2567 12.34 62.1354 12.9 61.8927 13.404C61.6594 13.8987 61.2954 14.2953 60.8007 14.594C60.3154 14.8927 59.7087 15.042 58.9807 15.042C57.59 15.042 56.6287 14.5987 56.0967 13.712C55.574 12.8253 55.3127 11.57 55.3127 9.946C55.3127 6.49267 56.498 4.766 58.8687 4.766C59.7647 4.766 60.4694 5.01333 60.9827 5.508C61.496 5.99333 61.7994 6.628 61.8927 7.412H60.9827ZM58.8827 9.176C58.444 9.176 58.0287 9.26467 57.6367 9.442C57.2447 9.61933 56.9227 9.89 56.6707 10.254C56.428 10.6087 56.3067 11.0473 56.3067 11.57C56.3067 12.326 56.5307 12.956 56.9787 13.46C57.4267 13.964 58.08 14.216 58.9387 14.216C59.6574 14.216 60.2314 13.9967 60.6607 13.558C61.09 13.1193 61.3047 12.522 61.3047 11.766C61.3047 10.954 61.0947 10.3193 60.6747 9.862C60.2547 9.40467 59.6574 9.176 58.8827 9.176Z" fill="#854836"/>
<path opacity="0.2" d="M7.416 5.732L3.51 15H2.516L6.464 5.816H0.864V4.976H7.416V5.732ZM14.6428 7.412C14.4375 6.19867 13.7328 5.592 12.5288 5.592C11.6142 5.592 10.9282 5.94667 10.4708 6.656C10.0135 7.36533 9.80351 8.52733 9.84084 10.142C10.0275 9.582 10.3822 9.14333 10.9048 8.826C11.4368 8.49933 12.0435 8.336 12.7248 8.336C13.7048 8.336 14.4795 8.63933 15.0488 9.246C15.6275 9.84333 15.9168 10.6693 15.9168 11.724C15.9168 12.34 15.7955 12.9 15.5528 13.404C15.3195 13.8987 14.9555 14.2953 14.4608 14.594C13.9755 14.8927 13.3688 15.042 12.6408 15.042C11.2502 15.042 10.2888 14.5987 9.75684 13.712C9.23418 12.8253 8.97284 11.57 8.97284 9.946C8.97284 6.49267 10.1582 4.766 12.5288 4.766C13.4248 4.766 14.1295 5.01333 14.6428 5.508C15.1562 5.99333 15.4595 6.628 15.5528 7.412H14.6428ZM12.5428 9.176C12.1042 9.176 11.6888 9.26467 11.2968 9.442C10.9048 9.61933 10.5828 9.89 10.3308 10.254C10.0882 10.6087 9.96684 11.0473 9.96684 11.57C9.96684 12.326 10.1908 12.956 10.6388 13.46C11.0868 13.964 11.7402 14.216 12.5988 14.216C13.3175 14.216 13.8915 13.9967 14.3208 13.558C14.7502 13.1193 14.9648 12.522 14.9648 11.766C14.9648 10.954 14.7548 10.3193 14.3348 9.862C13.9148 9.40467 13.3175 9.176 12.5428 9.176Z" fill="#854836"/>
<g opacity="0.2">
<rect opacity="0.01" x="61.5" width="20" height="20" fill="#854836"/>
<path d="M69.2414 17.4998C67.8507 17.4931 66.5208 16.9287 65.5497 15.9331C64.5861 15.0199 64.0253 13.7608 63.9909 12.4337C63.9565 11.1065 64.4514 9.8201 65.3664 8.85814L71.4997 2.66647C72.1616 2.00582 73.0648 1.64453 73.9997 1.66647C75.0008 1.66988 75.9586 2.07522 76.6581 2.79147C78.0923 4.17239 78.1481 6.45039 76.7831 7.89981L70.6164 14.0915C70.2174 14.4931 69.6742 14.7182 69.1081 14.7165C68.4964 14.7173 67.9103 14.4708 67.4831 14.0331C66.6033 13.1813 66.5735 11.7799 67.4164 10.8915L73.1081 5.17481C73.4423 4.95285 73.8872 5.00053 74.1668 5.28827C74.4464 5.57601 74.4812 6.02212 74.2497 6.34981L68.5581 12.0665C68.3606 12.3044 68.3903 12.6566 68.6247 12.8581C68.742 12.9762 68.9001 13.0448 69.0664 13.0498C69.1908 13.0516 69.3108 13.0036 69.3997 12.9165L75.5581 6.72481C76.2773 5.92575 76.2217 4.69719 75.4331 3.96647C74.7021 3.2076 73.5054 3.1527 72.7081 3.84147L66.5497 9.99981C65.9449 10.6494 65.6241 11.5135 65.6586 12.4004C65.693 13.2874 66.0797 14.124 66.7331 14.7248C67.3884 15.4041 68.2892 15.7915 69.2331 15.7998C70.0467 15.8064 70.8294 15.4885 71.4081 14.9165L77.5664 8.72481C77.8909 8.39804 78.4188 8.39617 78.7456 8.72064C79.0723 9.04511 79.0742 9.57304 78.7497 9.89981L72.5914 16.0915C71.7082 16.9903 70.5015 17.4976 69.2414 17.4998Z" fill="#854836"/>
</g>
</svg>
