<svg width="35" height="35" viewBox="0 0 35 35" fill="none" xmlns="http://www.w3.org/2000/svg">
<mask id="mask0_1_2" style="mask-type:luminance" maskUnits="userSpaceOnUse" x="9" y="8" width="17" height="19">
<path d="M25.4545 8.75H9.54546V26.25H25.4545V8.75Z" fill="white"/>
</mask>
<g mask="url(#mask0_1_2)">
<path d="M23.7881 21.9768H22.5142C22.4273 21.9768 22.3457 22.0195 22.2913 22.0948C22.1645 22.2677 22.0286 22.4346 21.8855 22.5933C21.3 23.2515 20.6066 23.7759 19.8434 24.1378C19.0527 24.5129 18.2029 24.7052 17.3446 24.7035C16.4767 24.7035 15.6359 24.5122 14.8459 24.1378C14.0827 23.7759 13.3892 23.2515 12.8038 22.5933C12.2173 21.9374 11.7497 21.16 11.4267 20.3041C11.0915 19.4169 10.9229 18.4748 10.9229 17.5C10.9229 16.5253 11.0933 15.5831 11.4267 14.696C11.7493 13.8393 12.2131 13.068 12.8038 12.4067C13.3945 11.7454 14.0813 11.2244 14.8459 10.8622C15.6359 10.4878 16.4767 10.2966 17.3446 10.2966C18.2126 10.2966 19.0534 10.4858 19.8434 10.8622C20.608 11.2244 21.2948 11.7454 21.8855 12.4067C22.0286 12.5674 22.1627 12.7343 22.2913 12.9053C22.3457 12.9805 22.4291 13.0232 22.5142 13.0232H23.7881C23.9022 13.0232 23.9729 12.8809 23.9094 12.773C22.5197 10.3474 20.088 8.74189 17.3247 8.75C12.9832 8.76225 9.50233 12.7201 9.54584 17.5895C9.58936 22.3817 13.0647 26.25 17.3446 26.25C20.1007 26.25 22.5215 24.6465 23.9094 22.227C23.9711 22.1192 23.9022 21.9768 23.7881 21.9768ZM25.3989 17.3718L22.8277 15.0928C22.7317 15.0073 22.5922 15.0846 22.5922 15.221V16.7675H16.9025C16.8228 16.7675 16.7576 16.8407 16.7576 16.9303V18.0698C16.7576 18.1593 16.8228 18.2326 16.9025 18.2326H22.5922V19.7791C22.5922 19.9154 22.7335 19.9928 22.8277 19.9073L25.3989 17.6282C25.4163 17.613 25.4303 17.5935 25.4399 17.5713C25.4495 17.5491 25.4545 17.5248 25.4545 17.5C25.4545 17.4753 25.4495 17.4509 25.4399 17.4287C25.4303 17.4065 25.4163 17.387 25.3989 17.3718Z" fill="#854836"/>
</g>
</svg>
