<svg width="30" height="30" viewBox="0 0 30 30" fill="none" xmlns="http://www.w3.org/2000/svg">
<path fill-rule="evenodd" clip-rule="evenodd" d="M15 3.75C13.3424 3.75 11.7527 4.40848 10.5806 5.58058C9.40848 6.75268 8.75 8.3424 8.75 10C8.75 11.6576 9.40848 13.2473 10.5806 14.4194C10.663 14.5019 10.7476 14.5818 10.834 14.6591C9.76337 15.1497 8.77771 15.8302 7.92893 16.6789C6.05357 18.5543 5 21.0978 5 23.75V25C5 25.6904 5.55964 26.25 6.25 26.25C6.94036 26.25 7.5 25.6904 7.5 25V23.75C7.5 21.7609 8.29018 19.8532 9.6967 18.4467C11.1032 17.0402 13.0109 16.25 15 16.25C16.9891 16.25 18.8968 17.0402 20.3033 18.4467C21.7098 19.8532 22.5 21.7609 22.5 23.75V25C22.5 25.6904 23.0596 26.25 23.75 26.25C24.4404 26.25 25 25.6904 25 25V23.75C25 21.0978 23.9464 18.5543 22.0711 16.6789C21.2223 15.8302 20.2366 15.1497 19.166 14.6591C19.2524 14.5818 19.337 14.5019 19.4194 14.4194C20.5915 13.2473 21.25 11.6576 21.25 10C21.25 8.3424 20.5915 6.75268 19.4194 5.58058C18.2473 4.40848 16.6576 3.75 15 3.75ZM12.3483 7.34835C13.0516 6.64509 14.0054 6.25 15 6.25C15.9946 6.25 16.9484 6.64509 17.6516 7.34835C18.3549 8.05161 18.75 9.00544 18.75 10C18.75 10.9946 18.3549 11.9484 17.6516 12.6517C16.9484 13.3549 15.9946 13.75 15 13.75C14.0054 13.75 13.0516 13.3549 12.3483 12.6517C11.6451 11.9484 11.25 10.9946 11.25 10C11.25 9.00544 11.6451 8.05161 12.3483 7.34835Z" fill="#854836"/>
</svg>
